{"title":"Melanie Rios Is The Only Dirty Thing In The House - Latina Calie","uid":9507505,"size":436949248,"categoryP":"porn","categoryS":"movie_clips","magnet":"?xt=urn:btih:1131078c78a774fd75de628068f32010ce424011&amp;dn=Melanie+Rios+Is+The+Only+Dirty+Thing+In+The+House+-+Latina+Calie&amp;tr=udp%3A%2F%2Ftracker.openbittorrent.com%3A80&amp;tr=udp%3A%2F%2Fopen.demonii.com%3A1337&amp;tr=udp%3A%2F%2Ftracker.coppersurfer.tk%3A6969&amp;tr=udp%3A%2F%2Fexodus.desync.com%3A6969","seeders":7,"leechers":1,"uploader":"athklym","files":-1,"time":1390342578,"description":" &lt;a href=&quot;http://bayimg.com/hahneaAFh&quot; rel=&quot;nofollow&quot; target=&quot;_NEW&quot;&gt;http://bayimg.com/hahneaAFh&lt;/a&gt;\nMelanie Rios is a tight little latina who cleans houses for a living. She cleans for rich guys in big houses where she knows her short shorts are going to land her a good fuck. This chica is amazing at dusting, vaccuuming and cleaning pipes!\nMelanie_Rios_Is_The_Only_Dirty_Thing_In_The_House_Latina_Caliente.wmv\nFormat : Windows Media\nFile size : 417 MiB\nDuration : 27mn 10s\nOverall bit rate mode : Variable\nOverall bit rate : 2 143 Kbps\nMaximum Overall bit rate : 3 144 Kbps\nEncoded date : UTC 2010-06-17 22:15:20.345\n\nVideo\nID : 2\nFormat : VC-1\nFormat profile : MP@HL\nCodec ID : WMV3\nCodec ID/Info : Windows Media Video 9\nCodec ID/Hint : WMV3\nDescription of the codec : Windows Media Video 9 - Professional\nDuration : 27mn 10s\nBit rate mode : Variable\nBit rate : 2 000 Kbps\nWidth : 1 280 pixels\nHeight : 720 pixels\nDisplay aspect ratio : 16:9\nFrame rate : 29.970 fps\nColor space : YUV\nChroma subsampling : 4:2:0\nBit depth : 8 bits\nScan type : Progressive\nCompression mode : Lossy\nBits/(Pixel*Frame) : 0.072\nStream size : 389 MiB (93%)\nNumberOfFrames : 48865\n\nAudio\nID : 1\nFormat : WMA\nFormat profile : Pro\nCodec ID : 162\nCodec ID/Info : Windows Media Audio\nDescription of the codec : Windows Media Audio 10 Professional - 128 kbps, 44 kHz, 2 channel 16 bit 1-pass CBR\nDuration : 27mn 10s\nBit rate mode : Constant\nBit rate : 128 Kbps\nChannel count : 2 channels\nSampling rate : 44.1 KHz\nBit depth : 16 bits\nStream size : 24.9 MiB (6%)","torrent":{"xt":"urn:btih:1131078c78a774fd75de628068f32010ce424011","amp;dn":"Melanie+Rios+Is+The+Only+Dirty+Thing+In+The+House+-+Latina+Calie","amp;tr":["udp%3A%2F%2Ftracker.openbittorrent.com%3A80","udp%3A%2F%2Fopen.demonii.com%3A1337","udp%3A%2F%2Ftracker.coppersurfer.tk%3A6969","udp%3A%2F%2Fexodus.desync.com%3A6969"],"infoHash":"1131078c78a774fd75de628068f32010ce424011","infoHashBuffer":{"type":"Buffer","data":[17,49,7,140,120,167,116,253,117,222,98,128,104,243,32,16,206,66,64,17]},"announce":[],"urlList":[]}}